<svg xmlns="http://www.w3.org/2000/svg" xmlns:xlink="http://www.w3.org/1999/xlink" height="800px" width="800px" version="1.1" id="Layer_1" viewBox="0 0 512 512" xml:space="preserve">
<path style="fill:#9CFCE3;" d="M319.287,291.201c28.403-28.402,70.521-36.431,111.547-25.439l-41.204,97.942l-95.785,39.044  C282.853,361.721,290.885,319.603,319.287,291.201z"/>
<path style="fill:#0DCD9B;" d="M430.837,265.764l-52.842,84.145l-84.153,52.834c41.025,10.998,83.155,2.967,111.555-25.433  C433.797,348.912,441.819,306.79,430.837,265.764z"/>
<path style="fill:#12F8BC;" d="M430.837,265.764c-0.838,29.206-16.611,63.578-45.011,91.977s-62.78,44.18-91.985,45.003  L430.837,265.764z"/>
<path style="fill:#9CFCE3;" d="M192.714,291.201c-28.403-28.402-70.521-36.431-111.547-25.439l41.204,97.942l95.785,39.044  C229.147,361.721,221.116,319.603,192.714,291.201z"/>
<path style="fill:#0DCD9B;" d="M81.163,265.764l52.842,84.145l84.153,52.834c-41.025,10.998-83.155,2.967-111.555-25.433  C78.204,348.912,70.18,306.79,81.163,265.764z"/>
<path style="fill:#12F8BC;" d="M81.163,265.764c0.838,29.206,16.611,63.578,45.011,91.977s62.779,44.18,91.985,45.003  L81.163,265.764z"/>
<path style="fill:#03785A;" d="M407.995,288.583c-3.242-3.244-8.5-3.241-11.741,0.001L256,428.855v20.045  c2.202,0,4.314-0.876,5.872-2.432l146.124-146.143C411.238,297.083,411.238,291.826,407.995,288.583z"/>
<path style="fill:#08A37B;" d="M247.698,249.081v171.471l-131.95-131.968c-3.244-3.242-8.501-3.244-11.741-0.001  c-3.244,3.242-3.244,8.5-0.001,11.741l143.692,143.712v59.661c0,4.585,3.716,8.303,8.303,8.303c4.586,0,8.303-3.717,8.303-8.303  V249.081H247.698z"/>
<polygon style="fill:#D7614D;" points="294.26,0 261.049,0 261.049,66.422 306.792,33.211 "/>
<polygon style="fill:#FF8048;" points="261.049,0 217.742,0 205.2,33.211 239.39,66.422 273.581,33.211 "/>
<polygon style="fill:#FFA46E;" points="317.862,33.211 284.651,33.211 284.651,99.632 330.405,66.422 "/>
<polygon style="fill:#FFC894;" points="284.651,33.211 194.13,33.211 181.598,66.422 239.396,99.632 297.194,66.422 "/>
<path style="fill:#D7614D;" d="M349.224,66.422H318.15l-62.148,204.8c55.019,0,99.632-44.602,99.632-99.632  C355.634,170.095,349.224,66.422,349.224,66.422z"/>
<path style="fill:#FFA46E;" d="M162.779,66.422c0,0-6.41,103.673-6.41,105.168c0,13.561,2.712,26.491,7.616,38.281v-0.642  L306.792,66.422H162.779z"/>
<path style="fill:#FF8048;" d="M318.15,66.422c0,0,4.273,103.673,4.273,105.168c0,55.03-29.735,99.632-66.422,99.632  c-41.469,0-77.016-25.329-92.016-61.351v-0.642c0-78.931,63.875-142.806,142.807-142.806H318.15z"/>
</svg>